<svg xmlns="http://www.w3.org/2000/svg" width="200" height="200" viewBox="0 0 671 671">
<g>
<path d="M 91.00 647.37 C83.02,645.87 70.70,642.45 65.53,640.28 C51.66,634.49 36.83,622.33 28.03,609.55 C22.90,602.08 16.34,587.19 14.37,578.50 C12.64,570.89 12.55,559.11 12.52,338.00 C12.50,88.31 12.22,101.85 17.66,88.14 C29.84,57.41 54.78,36.76 86.21,31.36 C96.99,29.51 117.42,29.97 127.23,32.30 C135.38,34.22 148.72,40.35 157.81,46.33 C161.49,48.75 173.05,56.02 183.50,62.48 C201.28,73.47 219.12,84.59 243.67,100.00 C269.08,115.95 289.88,128.84 294.25,131.35 C298.84,133.99 299.00,134.24 299.04,138.79 C299.40,180.34 298.70,277.70 298.05,278.35 C297.55,278.85 288.66,273.74 277.34,266.43 C248.35,247.74 242.53,244.00 232.00,237.30 C226.77,233.98 213.73,225.63 203.00,218.75 C159.79,191.05 149.11,184.55 148.22,185.45 C147.82,185.85 147.50,201.16 147.50,219.48 C147.50,250.61 147.62,252.93 149.37,254.86 C151.26,256.94 154.64,259.19 174.50,271.56 C180.55,275.33 188.02,280.31 191.09,282.64 C223.23,306.96 228.76,350.76 203.53,381.26 C196.15,390.18 190.70,394.33 168.48,407.91 C158.24,414.16 149.21,419.93 148.43,420.71 C147.25,421.90 147.00,427.94 147.00,455.60 C147.00,485.83 147.16,489.12 148.66,489.70 C150.51,490.41 150.27,490.54 166.78,479.50 C173.36,475.10 183.76,468.35 189.89,464.50 C206.35,454.16 237.62,434.60 244.50,430.33 C247.80,428.28 257.70,421.84 266.50,416.02 C288.84,401.24 295.73,397.00 297.38,397.00 C299.49,397.00 299.55,400.07 299.00,474.71 L 298.50 542.26 L 279.50 554.06 C251.36,571.54 217.81,592.69 207.54,599.42 C198.82,605.13 185.97,613.26 158.50,630.44 C136.19,644.40 127.89,647.16 107.00,647.57 C99.57,647.72 92.38,647.62 91.00,647.37 ZM 547.00 646.82 C531.94,643.60 525.98,641.05 510.00,631.00 C505.33,628.06 495.65,622.08 488.50,617.70 C481.35,613.33 470.98,606.77 465.45,603.12 C454.17,595.69 454.56,595.93 407.00,566.48 C388.02,554.73 371.49,544.39 370.25,543.51 L 368.00 541.91 L 368.00 469.92 C368.00,408.91 368.21,397.85 369.41,397.40 C371.19,396.71 374.58,398.47 386.77,406.40 C392.12,409.87 405.27,418.25 416.00,425.01 C426.73,431.77 441.80,441.43 449.50,446.48 C457.20,451.53 468.45,458.74 474.50,462.50 C480.55,466.27 492.58,473.99 501.24,479.67 C509.89,485.35 517.61,490.00 518.38,490.00 C519.15,490.00 520.04,489.33 520.35,488.52 C520.67,487.71 520.98,472.58 521.06,454.89 L 521.19 422.74 L 518.85 420.44 C517.56,419.17 512.00,415.56 506.50,412.42 C495.03,405.85 477.47,394.34 471.27,389.32 C462.20,381.98 452.77,366.55 449.63,353.94 C446.21,340.17 448.77,320.14 455.64,306.93 C462.84,293.08 473.31,284.06 502.50,266.54 C509.65,262.25 516.51,257.82 517.75,256.70 L 520.00 254.65 L 520.00 219.88 C520.00,200.48 519.60,184.87 519.10,184.56 C518.61,184.26 516.02,185.51 513.35,187.34 C510.68,189.18 496.79,198.10 482.48,207.18 C468.17,216.26 448.57,228.87 438.93,235.21 C429.28,241.54 420.29,247.30 418.95,248.02 C416.66,249.23 407.48,255.14 380.60,272.68 C374.55,276.64 369.24,279.65 368.80,279.38 C368.36,279.10 368.00,246.77 368.00,207.51 L 368.00 136.15 L 371.43 133.32 C373.32,131.77 384.01,124.97 395.18,118.21 C418.59,104.05 424.32,100.49 455.00,81.02 C467.38,73.17 479.75,65.44 482.50,63.85 C485.25,62.25 493.12,57.29 500.00,52.83 C516.23,42.28 521.98,39.06 530.50,35.72 C555.22,26.04 588.19,28.78 611.39,42.44 C619.23,47.06 630.74,57.38 636.77,65.20 C642.37,72.47 649.25,85.80 652.66,96.00 L 655.50 104.50 L 655.50 338.00 L 655.50 571.50 L 652.71 580.50 C641.58,616.40 617.69,638.72 582.50,646.09 C572.70,648.14 554.88,648.51 547.00,646.82 Z" fill="#FFC107"/>
</g>
</svg>
