<svg xmlns="http://www.w3.org/2000/svg" width="1095" height="201" viewBox="0 0 1095 201">
<g>
<path d="M 236.00 177.19 C233.52,177.01 231.19,176.56 230.80,176.19 C230.42,175.81 230.02,144.00 229.91,105.50 L 229.72 35.50 L 240.03 35.21 C245.70,35.06 250.60,35.35 250.92,35.86 C251.24,36.38 255.21,41.23 259.75,46.65 C264.29,52.07 274.75,65.02 282.99,75.44 C291.24,85.86 299.53,96.21 301.43,98.44 C303.33,100.67 307.64,105.88 311.00,110.00 C322.90,124.57 327.52,129.99 329.41,131.35 C328.77,131.10 328.02,130.60 327.18,129.85 L 324.50 127.50 L 326.92 130.25 C328.48,132.02 329.11,132.77 329.81,132.85 C330.35,132.91 330.94,132.56 332.07,131.96 C334.06,130.90 334.83,126.00 333.00,126.00 C332.45,126.00 332.00,127.10 332.00,128.44 C332.00,130.23 331.55,131.25 330.73,131.49 C331.70,130.46 331.74,124.42 331.88,74.72 L 332.00 33.94 L 355.50 34.50 L 344.00 34.44 L 332.50 34.39 L 343.25 34.73 L 354.00 35.07 L 354.00 104.71 C354.00,169.58 353.88,174.47 352.25,176.27 C351.67,176.92 351.29,177.35 351.14,177.62 L 345.24 177.79 C333.82,178.10 333.06,177.75 328.23,169.90 C327.01,167.92 324.89,165.45 323.51,164.41 C322.13,163.37 321.00,162.06 321.00,161.48 C321.00,160.91 320.10,159.79 319.00,159.00 C317.90,158.21 317.00,157.08 317.00,156.50 C317.00,155.92 316.12,154.81 315.05,154.04 C313.98,153.27 313.31,152.31 313.56,151.90 C313.81,151.50 312.21,149.40 310.01,147.24 C307.80,145.08 306.00,142.79 306.00,142.16 C306.00,141.52 305.55,141.00 305.00,141.00 C304.45,141.00 304.00,140.49 304.00,139.87 C304.00,139.24 303.03,137.89 301.85,136.87 C300.66,135.84 299.98,135.00 300.34,135.00 C301.12,135.00 298.63,131.90 294.25,127.40 C292.46,125.57 291.00,123.77 291.00,123.40 C291.00,123.03 290.03,121.89 288.85,120.87 C287.66,119.84 287.01,119.00 287.39,119.00 C287.78,119.00 287.06,117.93 285.80,116.63 C282.37,113.08 280.00,110.07 279.99,109.24 C279.99,108.83 278.64,107.44 276.99,106.14 C275.35,104.84 274.00,103.17 274.00,102.42 C274.00,101.68 272.66,99.59 271.02,97.78 C269.38,95.98 266.45,92.76 264.52,90.62 C262.58,88.49 261.00,86.22 261.00,85.57 C261.00,84.18 254.84,78.00 253.45,78.00 C252.86,78.00 252.50,96.91 252.50,127.75 L 252.50 172.66 C252.38,172.90 252.22,173.27 252.02,173.75 C251.49,174.99 250.37,176.00 249.53,176.00 C248.69,176.00 248.00,176.45 248.00,176.99 C248.00,177.20 248.15,177.38 248.40,177.50 L 246.50 177.50 C243.20,177.50 238.48,177.36 236.00,177.19 ZM 820.19 176.98 C812.82,175.04 803.00,170.40 803.00,168.84 C803.00,168.38 802.46,168.00 801.81,168.00 C800.43,168.00 793.63,160.78 791.22,156.75 C790.31,155.24 789.22,154.00 788.78,154.00 C788.35,154.00 788.00,153.38 788.00,152.62 C788.00,151.86 787.33,150.69 786.51,150.01 C785.69,149.33 785.24,148.41 785.52,147.97 C785.79,147.53 785.51,147.00 784.90,146.80 C784.29,146.60 783.68,145.10 783.55,143.46 C783.43,141.83 783.07,139.82 782.75,139.00 C782.25,137.67 781.43,132.87 780.82,128.24 C781.12,129.83 781.46,131.00 781.63,131.00 C781.83,131.00 782.00,127.37 782.00,122.94 C782.00,117.82 781.64,115.11 781.00,115.50 C781.55,115.16 782.00,113.11 782.00,110.94 C782.00,108.77 782.44,107.00 782.97,107.00 C783.50,107.00 783.66,106.27 783.31,105.38 C782.94,104.40 783.35,103.38 784.35,102.83 C785.26,102.32 786.00,101.14 786.01,100.20 C786.02,98.78 791.02,91.30 796.22,84.93 C798.43,82.22 808.24,75.36 814.56,72.11 C828.95,64.71 852.28,66.16 866.79,75.35 C877.80,82.34 884.43,91.41 888.53,105.11 C891.26,114.21 891.95,127.65 889.80,129.80 C888.90,130.70 877.98,131.00 846.80,131.00 L 805.00 131.00 L 805.00 133.84 C805.00,137.29 811.37,147.45 815.95,151.30 C819.20,154.04 825.00,157.45 825.00,156.62 C825.00,156.39 827.10,156.83 829.66,157.60 C836.80,159.75 847.40,159.40 855.00,156.77 C858.58,155.53 862.07,153.98 862.76,153.33 C863.45,152.67 864.91,151.85 866.01,151.50 C867.10,151.15 868.00,150.27 868.00,149.55 C868.00,149.24 868.15,148.92 868.40,148.63 C868.69,148.83 869.29,149.08 870.23,149.47 C873.55,150.83 880.00,158.16 880.00,160.58 C880.00,162.48 877.26,166.00 875.78,166.00 C875.28,166.00 873.27,167.22 871.32,168.70 C864.70,173.75 849.18,178.00 837.32,178.00 C829.87,178.00 818.38,175.70 812.24,172.99 C808.85,171.49 808.07,171.37 809.01,172.51 C809.81,173.48 814.91,175.45 820.25,176.99 C820.23,176.99 820.21,176.98 820.19,176.98 ZM 409.90 176.93 C404.21,175.31 401.47,173.56 397.43,169.64 C394.44,166.75 392.00,163.90 392.00,163.30 C392.00,162.70 391.28,161.94 390.40,161.60 C389.51,161.26 389.04,160.34 389.34,159.56 C389.64,158.77 389.41,157.97 388.83,157.78 C387.47,157.32 387.67,137.63 389.04,137.16 C389.57,136.98 389.79,136.47 389.52,136.03 C389.24,135.59 389.69,134.67 390.51,133.99 C391.33,133.31 392.00,132.21 392.00,131.54 C392.00,129.67 400.56,121.42 403.96,120.01 C405.63,119.32 407.00,118.39 407.00,117.94 C407.00,116.44 415.60,115.81 438.34,115.65 C454.53,115.54 461.24,115.16 462.12,114.28 C463.07,113.33 462.98,112.17 461.69,108.90 C460.79,106.60 460.29,104.34 460.58,103.87 C460.87,103.41 460.18,102.04 459.05,100.82 C457.92,99.61 457.00,98.20 457.00,97.68 C457.00,97.16 456.05,95.91 454.89,94.90 C449.84,90.53 442.22,88.26 433.77,88.15 C437.95,88.15 442.08,88.61 446.00,89.54 C447.83,89.98 448.10,89.88 447.00,89.17 C446.17,88.64 442.05,87.65 437.84,86.98 C431.80,86.01 429.06,86.01 424.84,86.98 C417.45,88.68 411.60,90.65 406.97,93.02 L 403.04 95.02 L 400.52 91.03 C399.13,88.84 398.00,86.58 398.00,86.02 C398.00,85.46 397.50,85.00 396.89,85.00 C396.28,85.00 396.02,84.40 396.30,83.66 C396.58,82.92 396.41,81.68 395.92,80.91 C395.84,80.77 395.76,80.65 395.68,80.55 C396.15,79.94 396.91,79.45 397.97,79.01 C399.61,78.33 402.19,76.71 403.72,75.39 C405.25,74.08 407.51,73.00 408.75,73.00 C409.99,73.00 411.00,72.62 411.00,72.16 C411.00,71.70 412.79,70.78 414.99,70.12 C420.35,68.52 441.65,66.63 443.79,67.57 C444.73,67.98 445.81,68.25 446.20,68.18 C446.58,68.10 450.18,68.86 454.20,69.87 C470.04,73.85 478.65,81.67 483.03,96.06 C483.71,98.30 484.15,100.21 484.44,103.59 C484.22,105.84 484.02,116.06 483.99,128.06 C483.95,141.50 483.65,157.79 483.32,164.25 L 482.72 176.00 L 473.98 176.00 C467.33,176.00 464.94,175.63 463.96,174.46 C463.00,173.29 462.97,172.63 463.84,171.76 C465.94,169.66 464.21,163.00 461.57,163.00 C461.18,163.00 458.38,165.02 455.34,167.50 C452.30,169.98 448.90,172.00 447.78,172.00 C446.65,172.00 444.29,172.90 442.52,173.99 C437.77,176.92 425.45,178.38 416.78,177.03 C410.74,176.10 407.92,176.18 409.90,176.93 ZM 699.97 174.42 C699.43,172.99 699.22,171.46 699.50,171.00 C699.78,170.54 699.54,170.01 698.96,169.82 C698.38,169.63 697.84,168.46 697.74,167.24 C697.65,166.01 697.27,165.00 696.90,165.00 C696.14,165.00 694.70,160.97 694.96,159.56 C695.05,159.04 694.71,157.69 694.19,156.56 C690.56,148.61 688.34,144.32 687.25,143.17 C686.55,142.44 686.27,141.37 686.62,140.81 C686.97,140.24 686.86,139.49 686.38,139.14 C684.86,138.04 683.00,134.11 683.00,132.01 C683.00,130.91 682.56,130.00 682.03,130.00 C681.50,130.00 681.30,129.38 681.59,128.63 C681.88,127.88 681.28,125.74 680.26,123.88 C679.24,122.02 677.80,118.60 677.05,116.28 C676.31,113.95 674.84,111.13 673.78,110.00 C672.73,108.87 671.80,107.06 671.72,105.97 C671.64,104.89 671.28,104.00 670.92,104.00 C670.56,104.00 670.01,102.47 669.71,100.60 C669.41,98.73 667.83,94.34 666.21,90.85 C660.05,77.61 658.00,72.92 658.00,72.06 C658.00,71.57 657.44,70.96 656.75,70.71 C655.85,70.38 655.80,69.93 656.58,69.09 C657.31,68.31 661.33,68.02 668.90,68.22 L 680.12 68.50 L 685.10 80.50 C687.84,87.10 690.51,93.28 691.04,94.24 C691.57,95.19 692.00,96.79 692.00,97.79 C692.00,98.78 692.39,100.03 692.86,100.55 C693.34,101.07 695.87,106.90 698.49,113.50 C701.11,120.10 704.06,127.30 705.03,129.50 C705.39,130.32 705.93,131.59 706.55,133.11 C705.70,131.14 705.04,129.78 704.78,129.50 C703.49,128.10 704.99,133.99 706.57,136.50 C707.26,137.60 708.54,140.92 709.40,143.88 C710.26,146.84 711.48,149.87 712.11,150.63 C712.73,151.38 713.39,152.00 713.58,152.00 C714.60,152.00 719.00,146.68 719.00,145.44 C719.00,144.63 719.43,143.19 719.96,142.24 C722.23,138.16 725.09,130.77 724.77,129.82 C724.58,129.25 723.38,130.97 722.10,133.64 C720.83,136.30 719.39,139.26 718.90,140.23 C720.12,137.84 723.54,130.20 725.16,126.25 C725.89,124.46 726.88,123.00 727.35,123.00 C727.83,123.00 727.93,122.26 727.58,121.36 C727.23,120.45 727.66,118.92 728.54,117.95 C729.42,116.99 730.01,115.59 729.86,114.85 C729.78,114.47 729.92,113.66 730.22,112.66 C730.31,112.86 730.57,113.00 730.94,113.00 C731.52,113.00 732.00,112.10 732.00,111.00 C732.00,109.90 732.45,109.00 733.00,109.00 C733.55,109.00 734.00,108.10 734.00,107.00 C734.00,105.90 734.36,105.00 734.80,105.00 C735.70,105.00 738.21,98.74 738.74,95.16 C738.95,93.75 738.70,93.10 738.08,93.45 C738.10,93.39 738.13,93.32 738.16,93.25 C738.89,91.46 739.83,90.00 740.24,90.00 C740.66,90.00 741.00,88.88 741.00,87.50 C741.00,86.12 741.45,85.00 742.00,85.00 C742.55,85.00 743.00,84.37 743.00,83.59 C743.00,82.82 743.95,80.23 745.10,77.84 C746.26,75.46 747.74,72.38 748.39,71.00 C749.41,68.85 749.87,68.54 757.34,68.30 C756.64,68.42 757.81,68.62 760.44,69.06 C763.15,69.52 765.79,69.63 766.30,69.32 C767.84,68.36 766.05,76.33 762.85,84.69 C761.21,88.98 759.15,94.53 758.29,97.00 C757.43,99.47 756.14,102.18 755.43,103.00 C754.72,103.82 754.16,104.86 754.17,105.29 C754.22,106.48 752.13,111.76 748.89,118.62 C747.30,121.99 746.00,125.41 746.00,126.23 C746.00,127.04 744.20,131.26 742.00,135.60 C739.81,139.95 738.01,143.96 738.00,144.51 C738.00,145.07 737.16,147.10 736.14,149.01 C735.12,150.93 733.94,153.62 733.53,155.00 C732.69,157.80 731.01,161.81 727.13,170.24 L 724.50 175.97 L 714.68 175.99 C709.29,175.99 703.96,175.51 702.85,174.92 C701.30,174.09 700.23,174.10 700.10,174.76 ZM 547.00 178.30 C544.14,177.27 538.50,174.60 538.00,174.05 C537.72,173.75 536.60,173.01 535.50,172.42 C534.40,171.82 533.06,170.36 532.51,169.17 C531.97,167.98 531.18,167.00 530.76,167.00 C530.34,167.00 530.00,166.32 530.00,165.50 C530.00,164.68 529.55,164.00 529.00,164.00 C528.45,164.00 528.00,162.90 528.00,161.56 C528.00,160.46 527.70,159.35 527.29,158.79 C527.36,158.80 527.40,158.79 527.42,158.75 C527.46,158.61 527.28,143.20 527.00,124.50 C526.66,101.70 526.12,89.86 525.36,88.57 C524.42,86.98 522.94,86.61 516.86,86.44 C512.81,86.33 509.18,86.18 508.79,86.12 C508.40,86.05 507.92,82.29 507.72,77.75 C507.62,75.42 507.55,73.76 507.50,72.82 L 507.50 69.50 L 516.20 69.50 C521.57,69.50 525.35,69.05 526.08,68.31 C526.93,67.47 527.13,63.36 526.80,54.03 L 526.32 40.94 L 548.50 41.50 L 548.54 43.72 C548.39,42.60 548.21,42.00 548.00,42.00 C547.38,42.00 547.00,47.33 547.00,56.00 C547.00,69.88 547.02,70.00 549.25,69.92 C550.49,69.88 550.94,69.62 550.25,69.34 C549.81,69.16 549.51,68.20 549.31,66.16 C549.54,68.19 549.86,69.12 550.28,69.19 C550.95,69.29 557.35,69.40 564.50,69.44 L 570.08 69.46 C570.45,69.55 571.09,69.68 572.00,69.85 L 575.50 70.50 L 575.50 86.50 L 547.50 87.50 L 547.22 117.00 C547.07,133.23 547.16,147.40 547.44,148.50 C547.71,149.60 549.09,151.74 550.51,153.25 C553.87,156.85 554.63,156.77 551.91,153.10 C551.71,152.82 551.49,152.48 551.28,152.11 C555.66,158.31 563.62,159.91 571.96,156.15 C572.16,156.05 572.37,155.96 572.58,155.87 C572.36,156.30 573.07,156.61 574.20,156.57 C575.76,156.52 577.03,157.90 579.15,161.98 C582.72,168.85 582.74,170.75 579.25,172.12 C577.74,172.71 575.15,173.78 573.50,174.50 C567.19,177.24 560.85,178.28 553.71,177.72 C549.74,177.41 545.60,176.89 544.50,176.57 C543.40,176.24 543.85,176.63 545.50,177.44 C547.30,178.32 551.20,178.81 555.54,178.90 C551.68,178.94 548.27,178.76 547.00,178.30 ZM 633.02 70.00 L 632.50 175.50 L 623.33 175.79 C618.29,175.94 613.91,175.67 613.61,175.17 C613.16,174.44 612.47,75.67 612.88,71.25 C612.97,70.34 615.73,70.00 623.01,70.00 L 633.02 70.00 ZM 868.50 115.22 C869.79,114.29 870.26,112.00 869.16,112.00 C868.70,112.00 867.74,110.09 867.05,107.75 C866.35,105.41 864.89,102.26 863.82,100.75 C862.74,99.24 862.18,98.00 862.56,98.00 C862.94,98.00 861.53,96.42 859.43,94.50 C854.04,89.56 846.17,86.85 837.00,86.75 C828.98,86.67 823.69,88.06 817.88,91.78 C813.85,94.36 808.00,101.14 808.00,103.24 C808.00,103.99 807.59,105.03 807.09,105.55 C805.91,106.79 803.94,114.10 804.53,115.05 C805.12,116.01 867.17,116.17 868.50,115.22 ZM 442.13 160.43 C449.14,158.86 456.00,155.72 456.00,154.07 C456.00,153.65 457.10,152.03 458.44,150.47 C459.79,148.90 460.69,147.31 460.45,146.92 C460.21,146.53 460.69,144.60 461.51,142.64 C463.39,138.13 463.43,131.61 461.59,130.08 C460.01,128.76 426.73,129.08 421.50,130.46 C417.88,131.42 414.35,134.47 412.30,138.41 C410.02,142.78 410.95,152.25 413.96,155.45 C419.71,161.57 429.38,163.28 442.13,160.43 ZM 614.50 48.14 C612.03,46.61 610.41,45.35 609.36,43.84 C609.39,43.88 609.43,43.92 609.46,43.96 C611.98,46.74 612.58,46.53 610.61,43.54 C608.43,40.19 608.44,29.79 610.64,26.43 C611.53,25.06 612.05,23.71 611.77,23.44 C611.50,23.16 610.43,24.19 609.40,25.72 C609.27,25.91 609.15,26.11 609.04,26.34 C609.93,24.25 611.18,23.00 612.61,23.00 C613.38,23.00 614.00,22.60 614.00,22.12 C614.00,20.47 620.03,18.74 623.95,19.27 C631.50,20.28 638.00,27.67 638.00,35.25 C638.00,39.72 633.03,46.67 628.47,48.58 C623.79,50.53 618.08,50.35 614.50,48.14 ZM 574.14 155.26 C575.67,154.70 576.88,154.43 577.17,154.60 C577.39,154.74 578.31,156.41 579.45,158.62 C578.01,156.06 577.06,155.36 575.60,155.24 C575.09,155.20 574.59,155.21 574.14,155.26 ZM 713.37 177.00 L 700.95 177.00 L 700.59 176.06 C701.50,176.64 706.25,177.00 713.37,177.00 ZM 848.70 178.20 C842.28,179.19 835.65,179.37 829.22,178.64 C831.50,178.76 834.53,178.85 837.59,178.88 C841.39,178.93 845.10,178.70 848.70,178.20 ZM 736.93 96.25 C736.80,97.04 736.48,98.04 736.12,98.76 C735.63,99.72 734.79,101.62 734.25,103.00 C733.48,104.97 731.70,109.08 730.60,111.48 C730.83,110.83 731.10,110.16 731.39,109.50 C732.39,107.30 733.61,104.49 734.10,103.25 C734.84,101.40 735.52,99.71 736.93,96.25 ZM 415.50 178.32 C415.08,178.23 414.67,178.13 414.27,178.04 C417.49,178.64 421.52,178.89 425.59,178.82 C421.51,178.95 417.66,178.80 415.50,178.32 ZM 252.50 175.81 L 252.50 177.50 L 250.92 177.50 C251.74,177.24 252.23,176.73 252.50,175.81 ZM 395.10 82.26 C395.42,83.82 396.11,85.91 397.00,87.50 C395.72,85.22 395.08,83.55 395.10,82.26 ZM 581.60 162.93 C583.38,166.56 585.00,170.11 585.00,170.57 C585.00,170.36 583.48,166.93 581.60,162.93 ZM 548.09 126.03 C548.11,127.09 548.12,128.12 548.14,129.13 C548.29,136.40 548.43,140.92 548.69,143.98 C548.37,140.43 548.17,133.59 548.09,126.03 ZM 548.79 94.47 L 548.47 99.63 C548.38,101.03 548.31,102.82 548.25,104.86 C548.34,101.54 548.47,98.65 548.63,96.50 L 548.79 94.47 ZM 780.04 120.83 C780.01,120.37 780.00,119.96 780.00,119.62 C780.00,118.40 780.18,117.22 780.45,116.42 C780.15,117.37 780.01,118.94 780.04,120.83 ZM 484.85 113.21 C484.93,117.43 484.97,122.89 484.98,130.15 C484.96,123.58 484.92,117.76 484.85,113.21 ZM 754.41 109.63 C745.12,131.82 734.68,156.44 730.89,164.79 C734.62,156.55 745.10,131.87 754.41,109.63 ZM 769.50 68.39 C770.50,68.53 771.00,68.74 771.00,69.01 C771.00,69.01 771.00,69.02 771.00,69.02 C770.97,68.76 770.45,68.55 769.50,68.39 ZM 869.78 147.77 C869.82,147.76 869.86,147.75 869.90,147.74 C870.26,147.64 870.66,147.68 871.12,147.87 C870.64,147.69 870.22,147.68 869.78,147.77 ZM 526.04 135.48 C526.01,132.16 526.00,128.52 526.00,124.56 L 526.00 124.46 C526.00,128.30 526.01,132.01 526.04,135.48 ZM 608.26 41.54 C608.17,41.27 608.10,40.99 608.03,40.70 C608.10,40.99 608.17,41.27 608.26,41.54 Z" fill="rgba(0,0,0,1)"/>
<path d="M 610.53 123.25 L 610.55 69.50 L 622.28 69.22 L 634.00 68.94 L 634.00 177.00 L 610.50 177.00 ZM 633.02 70.00 L 623.01 70.00 C615.73,70.00 612.97,70.34 612.88,71.25 C612.47,75.67 613.16,174.44 613.61,175.17 C613.91,175.67 618.29,175.94 623.33,175.79 L 632.50 175.50 L 633.02 70.00 ZM 352.25 176.27 C353.88,174.47 354.00,169.58 354.00,104.71 L 354.00 35.07 L 343.25 34.73 L 332.50 34.39 L 344.00 34.44 L 355.50 34.50 L 355.50 177.50 L 353.00 177.85 C350.59,178.19 350.57,178.13 352.25,176.27 ZM 700.46 175.93 C699.42,174.25 700.64,173.74 702.85,174.92 C703.96,175.51 709.29,175.99 714.68,175.99 L 724.50 175.97 L 727.13 170.24 C731.01,161.81 732.69,157.80 733.53,155.00 C733.94,153.62 735.12,150.93 736.14,149.01 C737.16,147.10 738.00,145.07 738.00,144.51 C738.01,143.96 739.81,139.95 742.00,135.60 C744.20,131.26 746.00,127.04 746.00,126.23 C746.00,125.41 747.30,121.99 748.89,118.62 C752.13,111.76 754.22,106.48 754.17,105.29 C754.16,104.86 754.72,103.82 755.43,103.00 C756.14,102.18 757.43,99.47 758.29,97.00 C759.15,94.53 761.21,88.98 762.85,84.69 C766.05,76.33 767.84,68.36 766.30,69.32 C765.79,69.63 763.15,69.52 760.44,69.06 C755.63,68.26 755.70,68.23 763.25,68.12 C768.04,68.04 771.00,68.40 771.00,69.04 C771.00,70.35 738.16,148.75 730.89,164.79 C729.82,167.15 728.24,170.87 727.37,173.04 L 725.78 177.00 L 713.45 177.00 C705.79,177.00 700.87,176.60 700.46,175.93 ZM 413.16 177.82 C406.48,176.32 408.88,175.81 416.78,177.03 C425.45,178.38 437.77,176.92 442.52,173.99 C444.29,172.90 446.65,172.00 447.78,172.00 C448.90,172.00 452.30,169.98 455.34,167.50 C458.38,165.02 461.18,163.00 461.57,163.00 C464.21,163.00 465.94,169.66 463.84,171.76 C462.97,172.63 463.00,173.29 463.96,174.46 C464.94,175.63 467.33,176.00 473.98,176.00 L 482.72 176.00 L 483.32 164.25 C483.65,157.79 483.95,141.50 483.99,128.06 C484.03,114.61 484.27,103.40 484.53,103.14 C484.79,102.88 485.00,119.39 485.00,139.83 L 485.00 177.00 L 461.72 177.00 L 462.28 172.25 C462.64,169.19 462.40,166.89 461.59,165.78 C460.43,164.21 460.16,164.29 458.28,166.83 C455.56,170.51 445.82,175.59 437.91,177.46 C430.79,179.14 419.79,179.30 413.16,177.82 ZM 550.51 153.25 C549.09,151.74 547.71,149.60 547.44,148.50 C547.16,147.40 547.07,133.23 547.22,117.00 L 547.50 87.50 L 575.50 86.50 L 575.50 70.50 L 572.00 69.85 C568.79,69.25 568.87,69.21 573.00,69.35 L 577.50 69.50 L 577.50 88.50 L 549.26 88.50 L 548.63 96.50 C547.74,107.97 547.94,140.72 548.93,145.85 C549.39,148.24 550.73,151.50 551.91,153.10 C554.63,156.77 553.87,156.85 550.51,153.25 ZM 825.50 178.33 C818.75,176.86 810.08,173.80 809.01,172.51 C808.07,171.37 808.85,171.49 812.24,172.99 C818.38,175.70 829.87,178.00 837.32,178.00 C849.18,178.00 864.70,173.75 871.32,168.70 C873.27,167.22 875.28,166.00 875.78,166.00 C877.26,166.00 880.00,162.48 880.00,160.58 C880.00,158.16 873.55,150.83 870.23,149.47 C867.66,148.42 867.63,148.33 869.66,147.80 C871.39,147.35 872.91,148.59 877.59,154.28 L 883.39 161.33 L 879.27 164.99 C869.01,174.09 854.07,179.07 837.59,178.88 C832.04,178.82 826.60,178.57 825.50,178.33 ZM 526.67 158.33 C526.30,157.97 526.00,142.72 526.00,124.46 C526.00,98.46 525.72,91.01 524.70,90.17 C523.99,89.58 519.83,88.96 515.45,88.80 L 507.50 88.50 L 507.43 79.00 C507.37,69.77 507.38,69.73 507.72,77.75 C507.92,82.29 508.40,86.05 508.79,86.12 C509.18,86.18 512.81,86.33 516.86,86.44 C522.94,86.61 524.42,86.98 525.36,88.57 C526.12,89.86 526.66,101.70 527.00,124.50 C527.28,143.20 527.46,158.61 527.42,158.75 C527.37,158.89 527.03,158.70 526.67,158.33 ZM 399.91 95.27 C399.41,93.95 399.00,92.46 399.00,91.97 C399.00,91.47 398.10,89.46 397.00,87.50 C395.02,83.97 394.03,77.92 395.92,80.91 C396.41,81.68 396.58,82.92 396.30,83.66 C396.02,84.40 396.28,85.00 396.89,85.00 C397.50,85.00 398.00,85.46 398.00,86.02 C398.00,86.58 399.13,88.84 400.52,91.03 L 403.04 95.02 L 406.97 93.02 C411.60,90.65 417.45,88.68 424.84,86.98 C429.06,86.01 431.80,86.01 437.84,86.98 C442.05,87.65 446.17,88.64 447.00,89.17 C448.10,89.88 447.83,89.98 446.00,89.54 C433.98,86.68 420.06,88.30 408.57,93.90 L 400.83 97.68 ZM 545.50 177.44 C543.85,176.63 543.40,176.24 544.50,176.57 C545.60,176.89 549.74,177.41 553.71,177.72 C560.85,178.28 567.19,177.24 573.50,174.50 C575.15,173.78 577.74,172.71 579.25,172.12 C582.74,170.75 582.72,168.85 579.15,161.98 C577.03,157.90 575.76,156.52 574.20,156.57 C573.04,156.61 572.32,156.28 572.60,155.84 C572.87,155.39 574.22,155.12 575.60,155.24 C577.66,155.41 578.71,156.74 581.55,162.81 C583.45,166.86 585.00,170.36 585.00,170.57 C585.00,171.45 574.17,176.39 569.50,177.64 C562.80,179.43 549.34,179.32 545.50,177.44 ZM 712.11 150.63 C711.48,149.87 710.26,146.84 709.40,143.88 C708.54,140.92 707.26,137.60 706.57,136.50 C704.99,133.99 703.49,128.10 704.78,129.50 C705.29,130.05 707.40,134.92 709.46,140.32 L 713.21 150.15 L 715.61 147.90 C716.92,146.66 718.00,144.82 718.00,143.81 C718.00,142.80 718.40,141.19 718.89,140.24 C719.38,139.28 720.83,136.31 722.10,133.64 C723.38,130.97 724.58,129.25 724.77,129.82 C725.09,130.77 722.23,138.16 719.96,142.24 C719.43,143.19 719.00,144.63 719.00,145.44 C719.00,146.68 714.60,152.00 713.58,152.00 C713.39,152.00 712.73,151.38 712.11,150.63 ZM 547.00 56.00 C547.00,47.33 547.38,42.00 548.00,42.00 C548.62,42.00 549.00,47.14 549.00,55.42 C549.00,65.21 549.34,68.97 550.25,69.34 C550.94,69.62 550.49,69.88 549.25,69.92 C547.02,70.00 547.00,69.88 547.00,56.00 ZM 609.46 43.96 C606.82,41.04 606.78,29.60 609.40,25.72 C610.43,24.19 611.50,23.16 611.77,23.44 C612.05,23.71 611.53,25.06 610.64,26.43 C608.44,29.79 608.43,40.19 610.61,43.54 C612.58,46.53 611.98,46.74 609.46,43.96 ZM 730.24 112.25 C731.27,110.08 733.39,105.20 734.25,103.00 C734.79,101.62 735.63,99.72 736.12,98.76 C736.60,97.81 737.00,96.37 737.00,95.57 C737.00,94.77 737.47,93.83 738.05,93.47 C738.69,93.07 738.96,93.72 738.74,95.16 C738.21,98.74 735.70,105.00 734.80,105.00 C734.36,105.00 734.00,105.90 734.00,107.00 C734.00,108.10 733.55,109.00 733.00,109.00 C732.45,109.00 732.00,109.90 732.00,111.00 C732.00,112.10 731.52,113.00 730.94,113.00 C730.36,113.00 730.04,112.66 730.24,112.25 ZM 780.64 127.25 C779.71,121.61 779.88,116.19 781.00,115.50 C781.64,115.11 782.00,117.82 782.00,122.94 C782.00,127.37 781.83,131.00 781.63,131.00 C781.43,131.00 780.98,129.31 780.64,127.25 ZM 326.92 130.25 L 324.50 127.50 L 327.18 129.85 C330.22,132.53 332.00,132.01 332.00,128.44 C332.00,127.10 332.45,126.00 333.00,126.00 C334.83,126.00 334.06,130.90 332.07,131.96 C330.94,132.56 330.35,132.91 329.81,132.85 C329.11,132.77 328.48,132.02 326.92,130.25 ZM 248.00 176.99 C248.00,176.45 248.69,176.00 249.53,176.00 C250.37,176.00 251.49,174.99 252.02,173.75 C252.90,171.67 252.95,171.72 252.73,174.41 C252.56,176.56 251.92,177.40 250.25,177.65 C249.01,177.84 248.00,177.54 248.00,176.99 Z" fill="rgba(12,12,12,1)"/>
<path d="M 951.58 57.25 C953.85,56.81 970.57,56.26 990.33,56.00 C1023.43,55.57 1028.80,55.28 1030.80,53.87 C1031.95,53.05 1032.52,52.55 1032.70,50.98 C1032.69,52.65 1032.61,53.86 1032.45,54.27 C1031.87,55.78 1028.09,55.96 991.99,56.22 C971.34,56.36 953.90,56.82 951.58,57.25 ZM 927.29 177.28 C927.11,177.15 926.96,176.41 926.82,174.91 C927.70,175.12 929.93,175.45 932.42,175.70 C935.52,176.02 938.33,176.72 938.65,177.24 C938.74,177.39 938.87,177.51 939.04,177.61 C933.67,177.83 928.01,177.78 927.29,177.28 ZM 1080.55 166.47 L 1080.50 176.50 L 1069.33 176.78 C1069.04,176.79 1068.76,176.80 1068.48,176.80 C1069.98,176.67 1071.59,176.34 1073.38,175.83 C1075.40,175.25 1076.88,175.07 1077.97,174.32 C1079.39,173.35 1080.15,171.42 1080.55,166.47 ZM 1068.54 69.00 C1068.89,69.00 1069.24,69.00 1069.60,69.00 C1079.52,69.00 1079.99,69.10 1080.51,71.25 C1080.56,71.47 1080.61,72.44 1080.65,74.04 L 1078.20 71.69 C1075.77,69.37 1074.83,69.03 1068.54,69.00 ZM 942.91 177.40 C944.70,176.81 946.62,175.73 947.75,174.45 C949.00,173.02 949.56,172.22 949.80,167.44 C949.63,173.25 949.34,176.29 948.94,176.54 C948.38,176.88 945.95,177.18 942.91,177.40 ZM 1015.90 120.51 L 1018.20 118.31 C1019.95,116.63 1020.62,115.67 1020.85,113.25 C1020.85,117.75 1020.53,119.68 1019.79,120.15 C1019.59,120.28 1018.20,120.40 1015.90,120.51 ZM 1057.54 176.07 C1057.46,175.94 1057.39,175.14 1057.33,173.80 L 1060.25 175.25 C1062.07,176.16 1063.84,176.68 1065.75,176.83 C1061.01,176.83 1057.84,176.55 1057.54,176.07 ZM 1020.65 104.10 C1020.37,102.37 1019.87,101.22 1019.06,100.25 C1018.25,99.29 1017.79,98.73 1014.95,98.42 L 1020.50 98.50 L 1020.65 104.10 ZM 986.06 98.00 C985.57,98.00 985.07,98.00 984.56,98.00 C966.10,98.00 958.00,97.95 954.33,97.54 L 986.06 98.00 ZM 926.22 154.78 C926.09,143.80 926.03,128.16 926.00,106.47 C926.00,105.52 926.00,104.57 926.00,103.63 C926.06,122.35 926.14,141.19 926.22,154.78 ZM 1057.26 128.28 C1057.29,116.14 1057.27,103.44 1057.20,95.11 C1057.09,82.40 1057.24,74.95 1057.69,71.89 C1057.24,74.95 1057.10,82.38 1057.23,95.11 C1057.33,104.85 1057.33,118.04 1057.26,128.28 ZM 950.00 150.78 C950.00,149.78 950.00,148.74 950.00,147.64 C950.00,130.13 950.33,123.07 951.20,122.20 C950.33,123.08 950.00,130.57 950.00,149.64 C950.00,150.03 950.00,150.41 950.00,150.78 ZM 951.20 122.20 C951.87,121.53 957.06,121.18 969.75,121.06 C957.04,121.19 951.86,121.54 951.20,122.20 ZM 951.38 96.55 C951.31,96.45 951.26,96.36 951.22,96.25 C951.14,96.06 951.07,95.66 951.00,95.09 L 951.38 96.55 ZM 1032.18 40.18 L 1031.71 34.00 L 1031.73 34.00 L 1032.18 40.18 Z" fill="rgba(207,178,101,1)"/>
<path d="M 949.87 98.33 C951.03,99.73 953.18,99.98 963.37,99.90 C970.04,99.85 976.62,99.44 978.00,99.00 C979.52,98.51 974.93,98.16 966.22,98.10 C953.61,98.01 951.85,97.79 951.22,96.25 C951.88,97.87 954.43,98.00 984.56,98.00 C1008.30,98.00 1014.76,98.00 1017.25,98.87 C1017.29,99.03 1017.36,99.24 1017.46,99.50 C1020.35,106.98 1020.25,114.72 1017.24,117.21 C1016.05,118.20 1008.22,118.50 983.27,118.50 C952.62,118.50 950.76,118.60 949.46,120.39 C948.37,121.88 948.09,127.38 948.15,146.50 C948.19,159.83 947.90,171.74 947.51,172.98 C946.81,175.17 946.54,175.21 936.15,174.65 C929.71,174.31 926.49,174.42 928.00,174.94 C928.48,175.11 929.12,175.26 929.85,175.40 C927.96,175.16 926.58,174.91 926.44,174.77 C926.19,174.53 925.77,58.85 925.92,38.15 C926.10,38.02 926.29,37.85 926.50,37.64 C927.98,36.16 933.26,35.27 944.00,34.67 C946.82,34.52 944.61,34.32 939.13,34.21 C947.30,34.06 959.94,34.00 978.86,34.00 L 1031.71 34.00 L 1031.78 34.85 C1031.44,34.23 1030.68,34.02 1029.25,34.03 L 1026.50 34.07 L 1028.86 36.03 C1031.20,37.98 1031.81,38.38 1031.95,37.20 L 1032.40 43.12 C1032.62,45.98 1032.76,47.95 1032.77,49.36 C1032.77,49.36 1032.77,49.36 1032.77,49.35 C1032.43,46.84 1032.29,46.74 1031.62,48.50 C1031.19,49.63 1030.96,50.50 1030.47,51.18 C1028.65,53.69 1023.22,53.58 990.68,54.00 C957.54,54.43 951.85,54.72 950.52,56.05 C948.33,58.24 947.76,95.76 949.87,98.33 ZM 938.60 172.96 C940.94,173.38 942.53,173.74 943.62,173.17 C946.01,171.89 945.97,166.04 946.20,146.02 C946.47,122.68 946.68,119.89 948.29,118.28 C949.92,116.65 952.69,116.50 981.88,116.50 C1007.37,116.50 1014.02,116.23 1015.34,115.13 C1017.32,113.49 1017.64,105.04 1015.80,103.20 C1014.92,102.32 1006.20,102.00 982.80,102.00 C957.86,102.00 950.30,102.31 947.94,98.96 C946.72,97.23 946.91,94.51 946.79,90.25 C946.68,85.99 946.71,77.10 946.87,70.50 C947.18,57.11 948.37,54.01 953.61,52.87 C955.20,52.52 972.35,52.18 991.71,52.12 C1024.82,52.01 1026.99,51.89 1027.91,50.16 C1029.41,47.37 1029.56,40.16 1028.15,38.75 C1027.23,37.82 1018.50,37.37 994.66,37.00 C956.50,36.41 931.46,37.14 929.71,38.89 C928.01,40.60 928.62,171.12 930.34,172.26 C930.98,172.68 932.22,172.85 933.10,172.65 C933.98,172.44 936.45,172.58 938.60,172.96 ZM 1060.25 175.25 L 1057.00 173.64 L 1056.93 164.57 C1056.88,159.58 1056.99,147.18 1057.16,137.00 C1057.33,126.82 1057.36,107.97 1057.23,95.11 C1057.15,87.04 1057.17,81.10 1057.32,77.06 L 1058.57 74.75 C1059.94,72.23 1060.55,72.00 1065.98,72.00 C1072.50,72.00 1076.73,73.44 1077.40,75.90 C1077.64,76.78 1078.11,83.57 1078.45,91.00 C1078.78,98.43 1079.38,107.43 1079.78,111.00 C1080.30,115.67 1080.58,111.47 1080.77,96.08 L 1081.00 77.88 L 1081.00 123.03 C1081.00,138.34 1081.05,149.03 1080.93,156.54 C1080.93,155.03 1080.92,153.38 1080.91,151.60 C1080.86,138.99 1080.51,132.55 1079.98,134.31 C1079.52,135.86 1079.10,143.73 1079.04,151.81 C1078.99,159.89 1078.60,168.07 1078.18,170.00 C1077.45,173.35 1077.19,173.53 1071.86,174.27 C1068.11,174.80 1065.05,174.64 1062.41,173.78 C1058.61,172.54 1058.48,172.34 1057.91,167.00 L 1057.33 161.50 L 1057.16 167.57 C1057.00,173.48 1057.08,173.68 1060.25,175.25 ZM 1064.57 172.16 C1068.05,172.95 1074.09,172.24 1075.50,170.87 C1076.91,169.51 1077.31,143.71 1076.48,108.16 L 1075.77 77.83 L 1072.63 75.89 C1068.47,73.32 1062.93,73.72 1061.46,76.69 C1060.17,79.30 1059.60,163.86 1060.85,168.52 C1061.43,170.71 1062.42,171.68 1064.57,172.16 ZM 1063.33 49.54 C1056.40,46.51 1053.19,37.27 1056.39,29.60 C1061.15,18.21 1077.83,18.03 1083.36,29.31 C1085.20,33.07 1085.26,37.11 1083.82,40.70 C1083.66,40.01 1082.31,40.61 1080.30,42.76 C1076.47,46.85 1073.91,48.00 1068.62,48.00 C1065.26,48.00 1063.03,48.79 1063.33,49.54 ZM 1064.26 45.88 C1068.83,47.20 1071.50,47.18 1074.53,45.80 C1077.35,44.52 1081.00,38.42 1081.00,34.99 C1081.00,31.31 1077.98,26.89 1074.47,25.42 C1068.51,22.93 1065.21,23.56 1060.76,28.01 C1056.98,31.78 1056.79,32.26 1057.42,36.26 C1058.33,41.92 1060.34,44.75 1064.26,45.88 ZM 1077.06 48.41 C1076.70,48.63 1076.33,48.83 1075.95,49.03 C1072.80,50.63 1070.06,51.19 1067.18,50.72 C1070.52,50.99 1074.03,50.14 1077.06,48.41 ZM 938.65 177.24 C938.38,176.80 936.38,176.25 933.93,175.89 C934.02,175.89 934.10,175.90 934.19,175.90 C936.22,175.96 938.19,176.50 938.56,177.10 C939.06,177.90 940.47,178.01 942.10,177.63 C940.49,178.03 939.10,177.98 938.65,177.24 ZM 1078.60 173.77 C1078.41,173.98 1078.20,174.16 1077.97,174.32 C1076.88,175.07 1075.40,175.25 1073.38,175.83 C1075.82,175.13 1077.48,174.71 1078.60,173.77 ZM 1018.15 99.33 C1018.50,99.58 1018.75,99.89 1019.06,100.25 C1019.76,101.09 1020.23,102.07 1020.53,103.45 C1020.20,102.14 1019.67,101.18 1018.84,100.16 C1018.58,99.83 1018.35,99.56 1018.15,99.33 ZM 1078.25 71.74 L 1081.00 74.37 L 1081.00 74.61 L 1078.33 71.83 C1078.31,71.80 1078.28,71.77 1078.25,71.74 ZM 1057.96 70.67 C1058.01,70.53 1058.06,70.43 1058.12,70.36 C1058.65,69.72 1060.13,69.32 1062.77,69.13 C1060.23,69.33 1058.77,69.77 1057.96,70.67 ZM 1032.30 52.40 C1032.01,52.95 1031.56,53.33 1030.91,53.79 C1031.54,53.34 1031.99,52.89 1032.30,52.40 ZM 1065.72 69.01 C1066.23,69.00 1066.76,69.00 1067.32,69.00 C1067.36,69.00 1067.40,69.00 1067.44,69.00 C1066.83,69.00 1066.26,69.00 1065.72,69.01 Z" fill="rgba(217,178,65,1)"/>
<path d="M 938.56 177.10 C938.19,176.50 936.22,175.96 934.19,175.90 C932.16,175.85 929.38,175.41 928.00,174.94 C926.49,174.42 929.71,174.31 936.15,174.65 C946.54,175.21 946.81,175.17 947.51,172.98 C947.90,171.74 948.19,159.83 948.15,146.50 C948.09,127.38 948.37,121.88 949.46,120.39 C950.76,118.60 952.62,118.50 983.27,118.50 C1008.22,118.50 1016.05,118.20 1017.24,117.21 C1020.25,114.72 1020.35,106.98 1017.46,99.50 C1016.89,98.04 1017.27,98.21 1018.84,100.16 C1020.55,102.26 1021.00,104.15 1021.00,109.22 C1021.00,114.93 1020.70,115.92 1018.20,118.31 L 1015.39 121.00 L 983.90 121.00 C960.73,121.00 952.08,121.32 951.20,122.20 C950.33,123.07 950.00,130.12 950.00,147.64 C950.00,171.36 949.95,171.94 947.75,174.45 C945.28,177.25 939.66,178.88 938.56,177.10 ZM 949.87 98.33 C947.76,95.76 948.33,58.24 950.52,56.05 C951.85,54.72 957.54,54.43 990.68,54.00 C1023.22,53.58 1028.65,53.69 1030.47,51.18 C1030.96,50.50 1031.19,49.63 1031.62,48.50 C1032.29,46.74 1032.43,46.84 1032.77,49.35 C1033.05,51.47 1032.55,52.63 1030.83,53.85 C1028.80,55.29 1023.64,55.56 990.33,56.00 C969.34,56.28 951.79,56.88 951.33,57.33 C950.32,58.35 950.21,93.80 951.22,96.25 C951.85,97.79 953.61,98.01 966.22,98.10 C974.93,98.16 979.52,98.51 978.00,99.00 C976.62,99.44 970.04,99.85 963.37,99.90 C953.18,99.98 951.03,99.73 949.87,98.33 ZM 1079.78 111.00 C1079.38,107.43 1078.78,98.43 1078.45,91.00 C1078.11,83.57 1077.64,76.78 1077.40,75.90 C1076.73,73.44 1072.50,72.00 1065.98,72.00 C1060.55,72.00 1059.94,72.23 1058.57,74.75 L 1057.08 77.50 L 1057.04 74.45 C1056.98,69.79 1058.50,69.00 1067.51,69.00 C1075.11,69.00 1075.80,69.18 1078.33,71.83 L 1081.04 74.65 L 1080.77 96.08 C1080.58,111.47 1080.30,115.67 1079.78,111.00 ZM 1060.25 175.25 C1057.08,173.68 1057.00,173.48 1057.16,167.57 L 1057.33 161.50 L 1057.91 167.00 C1058.48,172.34 1058.61,172.54 1062.41,173.78 C1065.05,174.64 1068.11,174.80 1071.86,174.27 C1077.19,173.53 1077.45,173.35 1078.18,170.00 C1078.60,168.07 1078.99,159.89 1079.04,151.81 C1079.10,143.73 1079.52,135.86 1079.98,134.31 C1080.51,132.55 1080.86,138.99 1080.91,151.60 C1080.98,166.75 1081.08,171.48 1078.78,173.62 C1077.65,174.67 1075.95,175.10 1073.38,175.83 C1067.93,177.38 1064.20,177.22 1060.25,175.25 ZM 1064.74 50.31 C1061.55,49.48 1064.03,48.00 1068.62,48.00 C1073.91,48.00 1076.47,46.85 1080.30,42.76 C1083.67,39.16 1085.20,39.91 1082.34,43.77 C1078.32,49.18 1070.94,51.93 1064.74,50.31 ZM 925.00 38.15 C925.00,34.29 925.96,34.00 937.86,34.18 C944.26,34.29 947.03,34.51 944.00,34.67 C933.26,35.27 927.98,36.16 926.50,37.64 C925.67,38.47 925.00,38.70 925.00,38.15 ZM 1028.86 36.03 L 1026.50 34.07 L 1029.25 34.03 C1031.34,34.01 1032.00,34.48 1032.00,36.00 C1032.00,38.47 1031.79,38.48 1028.86,36.03 Z" fill="rgba(215,184,87,1)"/>
<path d="M 938.60 172.96 C936.45,172.58 933.98,172.44 933.10,172.65 C932.22,172.85 930.98,172.68 930.34,172.26 C928.62,171.12 928.01,40.60 929.71,38.89 C931.46,37.14 956.50,36.41 994.66,37.00 C1018.50,37.37 1027.23,37.82 1028.15,38.75 C1029.56,40.16 1029.41,47.37 1027.91,50.16 C1026.99,51.89 1024.82,52.01 991.71,52.12 C972.35,52.18 955.20,52.52 953.61,52.87 C948.37,54.01 947.18,57.11 946.87,70.50 C946.71,77.10 946.68,85.99 946.79,90.25 C946.91,94.51 946.72,97.23 947.94,98.96 C950.30,102.31 957.86,102.00 982.80,102.00 C1006.20,102.00 1014.92,102.32 1015.80,103.20 C1017.64,105.04 1017.32,113.49 1015.34,115.13 C1014.02,116.23 1007.37,116.50 981.88,116.50 C952.69,116.50 949.92,116.65 948.29,118.28 C946.68,119.89 946.47,122.68 946.20,146.02 C945.97,166.04 946.01,171.89 943.62,173.17 C942.53,173.74 940.94,173.38 938.60,172.96 ZM 1064.57 172.16 C1062.42,171.68 1061.43,170.71 1060.85,168.52 C1059.60,163.86 1060.17,79.30 1061.46,76.69 C1062.93,73.72 1068.47,73.32 1072.63,75.89 L 1075.77 77.83 L 1076.48 108.16 C1077.31,143.71 1076.91,169.51 1075.50,170.87 C1074.09,172.24 1068.05,172.95 1064.57,172.16 ZM 165.50 194.02 C161.82,193.06 156.50,190.38 152.50,187.48 C150.85,186.28 148.82,185.00 148.00,184.64 C147.18,184.27 142.68,181.53 138.00,178.53 C133.32,175.54 125.79,170.79 121.25,167.98 L 113.00 162.87 L 113.00 141.43 C113.00,129.44 113.40,120.00 113.90,120.00 C115.34,120.00 132.87,130.92 140.50,136.58 C141.45,137.28 142.37,137.95 143.26,138.60 C139.45,136.08 139.03,135.99 136.45,135.04 C134.77,134.43 132.24,132.86 130.84,131.55 C129.44,130.25 126.54,128.33 124.39,127.28 C122.25,126.24 119.50,124.74 118.27,123.96 C116.87,123.07 115.76,122.91 115.27,123.53 C114.85,124.06 114.72,133.03 115.00,143.46 L 115.50 162.42 L 123.00 167.19 C127.12,169.81 131.62,172.52 133.00,173.21 C135.59,174.53 150.52,184.25 152.80,186.11 C153.51,186.69 157.34,188.69 161.30,190.55 C165.26,192.41 169.62,193.94 171.00,193.96 C175.44,194.02 185.37,189.25 190.05,184.81 C191.32,183.61 192.38,182.67 193.25,181.59 C197.65,176.14 197.50,167.02 197.50,102.00 C197.50,37.29 197.75,27.17 192.84,21.55 C191.67,20.21 190.22,19.13 188.40,17.63 C185.30,15.08 182.03,13.00 181.14,12.99 C180.24,12.99 178.21,12.32 176.64,11.49 C175.29,10.79 174.06,10.27 172.76,10.01 C173.12,10.00 173.49,10.00 173.86,10.00 C182.84,10.00 193.08,17.12 196.91,26.02 C199.06,31.00 199.06,31.23 198.78,103.76 L 198.50 176.50 L 194.79 182.00 C190.40,188.50 185.83,191.82 178.74,193.66 C173.08,195.12 170.08,195.21 165.50,194.02 ZM 1064.26 45.88 C1060.34,44.75 1058.33,41.92 1057.42,36.26 C1056.79,32.26 1056.98,31.78 1060.76,28.01 C1065.21,23.56 1068.51,22.93 1074.47,25.42 C1077.98,26.89 1081.00,31.31 1081.00,34.99 C1081.00,38.42 1077.35,44.52 1074.53,45.80 C1071.50,47.18 1068.83,47.20 1064.26,45.88 ZM 34.03 10.00 C42.26,10.01 45.36,11.25 58.97,19.93 C64.76,23.63 72.43,28.40 76.00,30.54 C79.57,32.68 83.91,35.34 85.63,36.46 C87.35,37.58 89.58,38.99 90.59,39.59 C92.28,40.59 92.41,42.18 92.21,60.09 C92.09,70.76 92.00,80.29 92.00,81.25 C92.00,83.75 90.49,83.43 85.23,79.81 C82.68,78.06 78.65,75.59 76.27,74.33 C73.89,73.06 71.39,71.55 70.72,70.97 C67.92,68.54 49.40,57.05 48.25,57.02 C47.33,57.01 47.00,59.63 47.00,66.86 L 47.00 76.72 L 53.75 81.07 C61.85,86.29 63.14,87.46 65.88,92.00 C68.07,95.62 68.52,100.49 67.47,105.19 C68.53,98.09 64.35,90.34 55.97,84.37 C53.51,82.62 50.04,79.83 48.25,78.18 C45.08,75.25 45.00,74.96 45.00,66.78 C45.00,56.55 46.27,53.99 50.28,56.12 C56.37,59.35 64.64,64.35 66.50,65.92 C67.60,66.85 71.43,69.35 75.00,71.48 C78.57,73.61 82.77,76.39 84.33,77.67 C88.98,81.50 90.62,80.82 91.35,74.75 C92.16,67.99 92.16,57.32 91.34,48.63 L 90.69 41.75 L 82.44 36.38 C77.90,33.42 73.84,31.00 73.40,31.00 C72.97,31.00 71.46,29.95 70.05,28.66 C68.65,27.37 64.35,24.53 60.50,22.34 C49.51,16.09 48.72,15.61 46.61,13.75 C45.52,12.79 43.38,12.00 41.87,12.00 C40.36,12.00 38.84,11.55 38.50,11.00 C38.16,10.45 36.15,10.00 34.03,10.00 ZM 27.22 193.94 C22.29,192.97 18.99,190.82 13.86,185.27 C12.58,183.88 11.55,182.93 10.71,181.82 C9.15,179.76 8.27,177.17 7.76,170.29 C7.97,171.91 8.24,172.82 8.57,173.60 C13.32,184.60 16.98,188.33 26.37,191.70 C33.36,194.22 37.16,193.98 44.00,190.61 C53.69,185.83 62.65,180.59 65.78,177.86 C67.59,176.29 69.52,175.00 70.08,175.00 C70.63,175.00 73.43,173.31 76.29,171.23 C79.16,169.16 82.62,166.89 84.00,166.18 C90.11,163.02 90.46,162.40 91.16,153.21 C91.53,148.42 91.87,139.87 91.91,134.22 C92.02,121.86 91.38,121.23 83.76,126.27 C80.87,128.18 74.22,132.11 69.00,135.00 C64.64,137.41 61.04,139.50 58.36,141.17 C67.38,135.01 84.84,123.69 87.51,122.43 C89.52,121.47 91.42,121.11 91.81,121.61 C92.19,122.10 92.36,131.73 92.20,143.00 L 91.89 163.50 L 77.32 172.50 C69.31,177.45 62.24,181.97 61.62,182.54 C61.01,183.11 56.93,185.71 52.56,188.33 C41.87,194.72 36.84,195.83 27.22,193.94 ZM 165.96 10.75 C160.28,12.74 151.68,18.07 135.32,28.75 C128.37,33.29 122.46,37.00 122.18,37.00 C121.91,37.00 120.18,38.15 118.34,39.55 L 115.00 42.10 L 115.00 61.05 C115.00,73.75 114.92,79.08 116.79,79.88 C118.18,80.48 120.67,78.53 125.10,75.24 C133.45,69.02 141.74,64.00 143.66,64.00 C144.50,64.00 146.39,63.15 147.85,62.12 C150.04,60.56 152.38,59.14 154.30,58.13 C150.27,60.54 128.97,74.48 119.19,81.12 C116.82,82.73 114.46,83.78 113.94,83.46 C113.40,83.13 113.00,73.95 113.00,62.00 L 113.00 41.12 L 118.75 37.50 C121.91,35.51 128.32,31.47 133.00,28.53 C151.89,16.63 159.43,12.27 165.96,10.75 ZM 159.00 126.95 L 154.39 124.23 C140.79,116.19 136.31,109.98 137.29,100.53 C138.09,92.68 141.54,88.01 150.98,81.95 L 158.51 77.12 C158.48,77.29 158.45,77.44 158.42,77.56 C158.12,78.69 156.21,80.49 154.18,81.56 C149.42,84.07 142.24,90.64 140.42,94.15 C136.50,101.73 140.15,113.30 147.85,117.68 C150.41,119.14 153.96,121.40 155.75,122.71 L 159.00 125.10 L 159.00 126.95 ZM 938.67 100.25 C940.09,102.61 944.00,97.65 944.00,93.48 C944.00,89.19 941.76,81.59 940.08,80.18 C939.21,79.45 939.03,79.12 939.68,79.44 C940.33,79.77 941.14,79.58 941.49,79.02 C941.84,78.46 941.61,78.00 941.00,78.00 C940.39,78.00 940.20,77.44 940.59,76.75 C941.15,75.76 941.02,75.76 939.97,76.73 C939.06,77.57 938.58,81.31 938.43,88.73 C938.31,94.65 938.42,99.84 938.67,100.25 ZM 7.06 140.49 C7.00,130.59 6.97,118.17 6.91,102.48 C6.64,29.83 6.65,29.48 8.76,25.42 C13.93,15.48 22.88,10.00 33.96,10.00 L 33.99 10.00 C31.86,10.00 29.84,10.45 29.50,11.00 C29.16,11.55 27.76,12.00 26.39,12.00 C20.61,12.00 15.99,16.16 10.84,26.00 L 7.44 32.50 L 7.16 101.10 C7.10,117.96 7.06,130.74 7.06,140.49 ZM 64.48 112.42 C63.81,113.48 63.05,114.47 62.20,115.38 C61.65,115.96 60.73,116.77 59.59,117.69 C61.70,115.91 63.26,114.23 64.48,112.42 ZM 158.89 61.31 C158.78,58.73 158.60,56.94 158.40,56.74 C158.64,56.97 158.80,58.81 158.89,61.31 ZM 49.84 147.04 C51.13,146.53 52.46,145.75 53.00,145.04 C53.02,145.02 53.05,144.99 53.08,144.95 C53.05,144.99 53.03,145.02 53.00,145.05 C52.45,145.76 51.13,146.54 49.84,147.04 ZM 158.11 147.43 C158.09,147.45 158.06,147.45 158.02,147.46 C158.06,147.45 158.09,147.44 158.13,147.42 C158.12,147.42 158.12,147.43 158.11,147.43 Z" fill="rgba(228,183,49,1)"/>
<path d="M 26.37 191.70 C16.98,188.33 13.32,184.60 8.57,173.60 C7.04,170.05 6.91,163.54 7.16,101.10 L 7.44 32.50 L 10.84 26.00 C15.99,16.16 20.61,12.00 26.39,12.00 C27.76,12.00 29.16,11.55 29.50,11.00 C29.84,10.45 31.86,10.00 34.00,10.00 C36.14,10.00 38.16,10.45 38.50,11.00 C38.84,11.55 40.36,12.00 41.87,12.00 C43.38,12.00 45.52,12.79 46.61,13.75 C48.72,15.61 49.51,16.09 60.50,22.34 C64.35,24.53 68.65,27.37 70.05,28.66 C71.46,29.95 72.97,31.00 73.40,31.00 C73.84,31.00 77.90,33.42 82.44,36.38 L 90.69 41.75 L 91.34 48.63 C92.16,57.32 92.16,67.99 91.35,74.75 C90.62,80.82 88.98,81.50 84.33,77.67 C82.77,76.39 78.57,73.61 75.00,71.48 C71.43,69.35 67.60,66.85 66.50,65.92 C64.64,64.35 56.37,59.35 50.28,56.12 C46.27,53.99 45.00,56.55 45.00,66.78 C45.00,74.96 45.08,75.25 48.25,78.18 C50.04,79.83 53.51,82.62 55.97,84.37 C65.74,91.34 69.81,100.73 66.50,108.67 C64.34,113.82 60.81,117.40 52.75,122.62 L 46.00 126.99 L 46.00 136.93 C46.00,142.41 46.44,147.15 46.98,147.49 C47.91,148.06 51.93,146.43 53.00,145.05 C54.04,143.70 59.82,140.07 69.00,135.00 C74.22,132.11 80.87,128.18 83.76,126.27 C91.38,121.23 92.02,121.86 91.91,134.22 C91.87,139.87 91.53,148.42 91.16,153.21 C90.46,162.40 90.11,163.02 84.00,166.18 C82.62,166.89 79.16,169.16 76.29,171.23 C73.43,173.31 70.63,175.00 70.08,175.00 C69.52,175.00 67.59,176.29 65.78,177.86 C62.65,180.59 53.69,185.83 44.00,190.61 C37.16,193.98 33.36,194.22 26.37,191.70 ZM 161.30 190.55 C157.34,188.69 153.51,186.69 152.80,186.11 C150.52,184.25 135.59,174.53 133.00,173.21 C131.62,172.52 127.12,169.81 123.00,167.19 L 115.50 162.42 L 115.00 143.46 C114.72,133.03 114.85,124.06 115.27,123.53 C115.76,122.91 116.87,123.07 118.27,123.96 C119.50,124.74 122.25,126.24 124.39,127.28 C126.54,128.33 129.44,130.25 130.84,131.55 C132.24,132.86 134.77,134.43 136.45,135.04 C140.02,136.36 139.46,136.02 149.44,142.74 C153.72,145.62 157.62,147.73 158.11,147.43 C158.60,147.13 159.00,141.98 159.00,135.99 L 159.00 125.10 L 155.75 122.71 C153.96,121.40 150.41,119.14 147.85,117.68 C140.15,113.30 136.50,101.73 140.42,94.15 C142.24,90.64 149.42,84.07 154.18,81.56 C156.21,80.49 158.12,78.69 158.42,77.56 C159.17,74.78 159.15,57.49 158.40,56.74 C157.79,56.12 152.50,58.82 147.85,62.12 C146.39,63.15 144.50,64.00 143.66,64.00 C141.74,64.00 133.45,69.02 125.10,75.24 C114.76,82.93 115.00,83.27 115.00,61.05 L 115.00 42.10 L 118.34 39.55 C120.18,38.15 121.91,37.00 122.18,37.00 C122.46,37.00 128.37,33.29 135.32,28.75 C165.07,9.32 169.18,7.61 176.64,11.49 C178.21,12.32 180.24,12.99 181.14,12.99 C182.03,13.00 185.30,15.08 188.40,17.63 C197.88,25.44 197.50,21.90 197.50,102.00 C197.50,179.94 197.71,177.56 190.05,184.81 C185.37,189.25 175.44,194.02 171.00,193.96 C169.62,193.94 165.26,192.41 161.30,190.55 ZM 938.67 100.25 C938.42,99.84 938.31,94.65 938.43,88.73 C938.58,81.31 939.06,77.57 939.97,76.73 C941.02,75.76 941.15,75.76 940.59,76.75 C940.20,77.44 940.39,78.00 941.00,78.00 C941.61,78.00 941.84,78.46 941.49,79.02 C941.14,79.58 940.33,79.77 939.68,79.44 C939.03,79.12 939.21,79.45 940.08,80.18 C941.76,81.59 944.00,89.19 944.00,93.48 C944.00,97.65 940.09,102.61 938.67,100.25 Z" fill="rgba(235,190,45,1)"/>
</g>
</svg>